<svg width="115" height="115" viewBox="0 0 115 115" fill="none" xmlns="http://www.w3.org/2000/svg">
<circle cx="57.5" cy="57.5" r="42.5" stroke="#FF7878" stroke-width="30"/>
<path d="M115 57.5C115 65.051 113.513 72.5281 110.623 79.5043C107.733 86.4805 103.498 92.8193 98.1586 98.1586C92.8193 103.498 86.4805 107.733 79.5043 110.623C72.5281 113.513 65.051 115 57.5 115L57.5 85.1C61.1245 85.1 64.7135 84.3861 68.0621 82.9991C71.4106 81.612 74.4532 79.579 77.0161 77.0161C79.579 74.4532 81.612 71.4106 82.9991 68.0621C84.3861 64.7135 85.1 61.1245 85.1 57.5H115Z" fill="#52C1FF"/>
<path d="M60.1651 41.75L73.1554 64.25C74.1177 65.9167 72.9149 68 70.9904 68H45.0096C43.0851 68 41.8823 65.9167 42.8446 64.25L55.8349 41.75C56.7972 40.0833 59.2028 40.0833 60.1651 41.75Z" fill="#FF7878" stroke="#52C1FF" stroke-width="5"/>
</svg>
