<svg width="583" height="229" viewBox="0 0 583 229" fill="none" xmlns="http://www.w3.org/2000/svg">
<path d="M289.641 106.238L345.156 28.3977L329.975 100.22L368.622 122.533L313.107 200.373L328.288 128.55L289.641 106.238Z" fill="#FFE600" fill-opacity="0.32"/>
<path d="M50 36L93.3013 111H6.69873L50 36Z" fill="#52C1FF"/>
<path d="M50 186L6.69873 111L93.3013 111L50 186Z" fill="#FF7878"/>
<path d="M50 36L93.3013 111H6.69873L50 36Z" fill="#52C1FF"/>
<path d="M50 186L6.69873 111L93.3013 111L50 186Z" fill="#FF7878"/>
<path d="M157.65 170.8C149.65 170.8 142.6 169.525 136.5 166.975C130.45 164.425 125.7 160.625 122.25 155.575C118.85 150.475 117.15 144.15 117.15 136.6C117.15 135.8 117.15 135.075 117.15 134.425C117.15 133.725 117.15 132.975 117.15 132.175H140.475C140.475 132.925 140.475 133.6 140.475 134.2C140.475 134.75 140.475 135.4 140.475 136.15C140.475 141.3 141.925 145.25 144.825 148C147.725 150.75 152.025 152.125 157.725 152.125C163.475 152.125 167.9 151.225 171 149.425C174.1 147.575 175.65 144.55 175.65 140.35C175.65 137.4 174.475 134.8 172.125 132.55C169.825 130.3 166.675 128.3 162.675 126.55C158.725 124.75 154.2 123.075 149.1 121.525C143.55 119.775 138.4 117.475 133.65 114.625C128.9 111.775 125.075 108.15 122.175 103.75C119.325 99.35 117.9 93.925 117.9 87.475C117.9 80.975 119.625 75.45 123.075 70.9C126.525 66.3 131.225 62.8 137.175 60.4C143.125 57.95 149.85 56.725 157.35 56.725C165.2 56.725 172.125 57.95 178.125 60.4C184.175 62.8 188.9 66.425 192.3 71.275C195.75 76.075 197.475 82.075 197.475 89.275C197.475 90.075 197.475 90.825 197.475 91.525C197.475 92.175 197.475 92.925 197.475 93.775H174.225C174.225 93.225 174.225 92.65 174.225 92.05C174.225 91.45 174.225 90.875 174.225 90.325C174.225 85.475 172.875 81.75 170.175 79.15C167.525 76.55 163.35 75.25 157.65 75.25C152.15 75.25 147.875 76.25 144.825 78.25C141.825 80.25 140.325 83.325 140.325 87.475C140.325 90.475 141.4 93.025 143.55 95.125C145.75 97.225 148.75 99.1 152.55 100.75C156.35 102.4 160.675 104.05 165.525 105.7C172.125 108 177.875 110.55 182.775 113.35C187.725 116.1 191.55 119.575 194.25 123.775C196.95 127.925 198.3 133.225 198.3 139.675C198.3 146.275 196.6 151.9 193.2 156.55C189.8 161.2 185.025 164.75 178.875 167.2C172.775 169.6 165.7 170.8 157.65 170.8ZM252.682 170.65C249.632 170.65 246.482 170.375 243.232 169.825C240.032 169.325 237.032 168.3 234.232 166.75C231.482 165.15 229.257 162.825 227.557 159.775C225.857 156.725 225.007 152.7 225.007 147.7C225.007 146.6 225.007 145.475 225.007 144.325C225.007 143.175 225.007 142.025 225.007 140.875V107.35H206.632V89.35H211.807C214.807 89.35 217.182 89.225 218.932 88.975C220.732 88.725 222.057 88.1 222.907 87.1C223.807 86.05 224.382 84.425 224.632 82.225C224.882 80.025 225.007 77 225.007 73.15V63.1H248.332V89.35H271.507V107.35H248.332V136C248.332 136.9 248.332 137.775 248.332 138.625C248.332 139.475 248.332 140.3 248.332 141.1C248.332 144.55 248.732 147.35 249.532 149.5C250.382 151.65 252.457 152.725 255.757 152.725C257.407 152.725 258.957 152.575 260.407 152.275C261.907 151.975 263.032 151.675 263.782 151.375V168.85C262.732 169.3 261.257 169.7 259.357 170.05C257.457 170.45 255.232 170.65 252.682 170.65ZM285.602 169V89.35H308.927V116.8L304.127 113.8C304.677 110.05 305.677 106.6 307.127 103.45C308.577 100.3 310.452 97.575 312.752 95.275C315.052 92.925 317.777 91.1 320.927 89.8C324.127 88.5 327.777 87.85 331.877 87.85C335.077 87.85 337.577 88.1 339.377 88.6C341.227 89.05 342.377 89.4 342.827 89.65L339.002 110.5C338.552 110.25 337.552 109.85 336.002 109.3C334.452 108.75 332.452 108.475 330.002 108.475C326.002 108.475 322.652 109.15 319.952 110.5C317.252 111.85 315.077 113.65 313.427 115.9C311.827 118.1 310.677 120.55 309.977 123.25C309.277 125.95 308.927 128.675 308.927 131.425V169H285.602Z" fill="#FF7878"/>
<path d="M353.696 169V89.35H376.721V169H353.696ZM365.171 76.375C361.571 76.375 358.421 75.425 355.721 73.525C353.071 71.625 351.746 68.95 351.746 65.5C351.746 62 353.071 59.3 355.721 57.4C358.421 55.5 361.571 54.55 365.171 54.55C368.821 54.55 371.971 55.5 374.621 57.4C377.321 59.3 378.671 62 378.671 65.5C378.671 69 377.321 71.7 374.621 73.6C371.971 75.45 368.821 76.375 365.171 76.375ZM427.154 170.8C420.504 170.8 414.379 169.225 408.779 166.075C403.179 162.875 398.679 158.15 395.279 151.9C391.879 145.65 390.179 137.95 390.179 128.8C390.179 120.05 391.904 112.625 395.354 106.525C398.854 100.425 403.404 95.8 409.004 92.65C414.654 89.45 420.704 87.85 427.154 87.85C433.454 87.85 439.204 89.45 444.404 92.65C449.654 95.85 453.854 100.225 457.004 105.775C460.154 111.275 461.729 117.625 461.729 124.825C461.729 125.075 461.729 125.325 461.729 125.575C461.729 125.775 461.729 126 461.729 126.25L451.679 126.4C451.679 126.25 451.679 126.1 451.679 125.95C451.679 125.75 451.679 125.575 451.679 125.425C451.679 121.675 450.779 118.45 448.979 115.75C447.179 113.05 444.854 110.975 442.004 109.525C439.154 108.025 436.179 107.275 433.079 107.275C427.929 107.275 423.479 109 419.729 112.45C415.979 115.85 414.104 121.3 414.104 128.8C414.104 136.3 415.979 141.825 419.729 145.375C423.529 148.875 427.979 150.625 433.079 150.625C436.279 150.625 439.304 149.875 442.154 148.375C445.004 146.825 447.304 144.65 449.054 141.85C450.804 139.05 451.679 135.75 451.679 131.95L461.729 132.475C461.729 139.625 460.179 146.1 457.079 151.9C454.029 157.65 449.879 162.25 444.629 165.7C439.429 169.1 433.604 170.8 427.154 170.8ZM451.679 169V51.775H475.004V169H451.679ZM501.656 136.15V120.775H554.456L552.206 124.675C552.206 124.275 552.206 123.9 552.206 123.55C552.206 123.15 552.206 122.775 552.206 122.425C552.206 119.575 551.531 116.85 550.181 114.25C548.831 111.6 546.731 109.45 543.881 107.8C541.081 106.1 537.481 105.25 533.081 105.25C528.681 105.25 524.881 106.2 521.681 108.1C518.531 109.95 516.106 112.625 514.406 116.125C512.756 119.625 511.931 123.85 511.931 128.8C511.931 133.9 512.731 138.275 514.331 141.925C515.981 145.525 518.406 148.3 521.606 150.25C524.856 152.2 528.881 153.175 533.681 153.175C536.781 153.175 539.456 152.9 541.706 152.35C543.956 151.75 545.781 151 547.181 150.1C548.631 149.2 549.731 148.2 550.481 147.1C551.231 146 551.681 144.925 551.831 143.875H574.781C574.481 147.225 573.331 150.525 571.331 153.775C569.331 156.975 566.556 159.875 563.006 162.475C559.456 165.025 555.131 167.05 550.031 168.55C544.981 170.05 539.206 170.8 532.706 170.8C523.906 170.8 516.231 169.05 509.681 165.55C503.131 162 498.056 157.125 494.456 150.925C490.856 144.675 489.056 137.475 489.056 129.325C489.056 121.075 490.881 113.85 494.531 107.65C498.231 101.4 503.356 96.55 509.906 93.1C516.506 89.6 524.131 87.85 532.781 87.85C541.631 87.85 549.281 89.625 555.731 93.175C562.181 96.675 567.156 101.6 570.656 107.95C574.156 114.25 575.906 121.6 575.906 130C575.906 131.25 575.881 132.45 575.831 133.6C575.781 134.75 575.706 135.6 575.606 136.15H501.656Z" fill="#52C1FF"/>
</svg>
